<svg xmlns="http://www.w3.org/2000/svg" viewBox="0 0 192 192" role="img" aria-label="Amazon mark">
  <rect width="192" height="192" rx="32" fill="#232f3e"/>
  <path d="M57 78c3-19 19-30 42-30 24 0 39 12 39 34v61h-27v-14c-8 11-19 17-34 17-20 0-34-12-34-31 0-20 16-32 47-35l21-2v-2c0-9-6-15-17-15-10 0-17 5-20 17H57Zm55 21-16 2c-17 2-25 6-25 14 0 7 6 12 16 12 15 0 25-10 25-25v-3Z" fill="#ffffff"/>
  <path d="M55 153c32 17 68 16 101-1 4-2 7 3 3 6-29 27-82 29-111 4-4-4 1-11 7-9Z" fill="#ff9900"/>
</svg>
