<svg xmlns:dc="http://purl.org/dc/elements/1.1/" xmlns:cc="http://creativecommons.org/ns#" xmlns:rdf="http://www.w3.org/1999/02/22-rdf-syntax-ns#" xmlns:svg="http://www.w3.org/2000/svg" xmlns="http://www.w3.org/2000/svg" xmlns:sodipodi="http://sodipodi.sourceforge.net/DTD/sodipodi-0.dtd" xmlns:inkscape="http://www.inkscape.org/namespaces/inkscape" viewBox="0 0 69 69" version="1.1" id="svg36" sodipodi:docname="atlassian-logo-gradient-horizontal-blue.svg" width="539.99603" height="66.958542" inkscape:version="0.92.1 r15371">
  <metadata id="metadata40">
    <rdf:RDF>
      <cc:Work rdf:about="">
        <dc:format>image/svg+xml</dc:format>
        <dc:type rdf:resource="http://purl.org/dc/dcmitype/StillImage"/>
        <dc:title>atlassian-logo-gradient-horizontal-blue</dc:title>
      </cc:Work>
    </rdf:RDF>
  </metadata>
  <sodipodi:namedview pagecolor="#ffffff" bordercolor="#666666" borderopacity="1" objecttolerance="10" gridtolerance="10" guidetolerance="10" inkscape:pageopacity="0" inkscape:pageshadow="2" inkscape:window-width="780" inkscape:window-height="480" id="namedview38" showgrid="false" fit-margin-top="0" fit-margin-left="0" fit-margin-right="0" fit-margin-bottom="0" inkscape:zoom="0.81666667" inkscape:cx="358.15928" inkscape:cy="25.92" inkscape:window-x="0" inkscape:window-y="0" inkscape:window-maximized="0" inkscape:current-layer="svg36"/>
  <defs id="defs9">
    <style id="style2">.cls-1{fill:url(#linear-gradient);}.cls-2{fill:#2684ff;}.cls-3{fill:#0052cc;}</style>
    <linearGradient id="linear-gradient" x1="28.540001" y1="69.489998" x2="11.41" y2="99.169998" gradientUnits="userSpaceOnUse" gradientTransform="translate(-0.0039818,-33.961454)">
      <stop offset="0" stop-color="#0052cc" id="stop4"/>
      <stop offset="0.92" stop-color="#2684ff" id="stop6"/>
    </linearGradient>
  </defs>
  <title id="title11">atlassian-logo-gradient-horizontal-blue</title>
  <path style="fill:url(#linear-gradient)" inkscape:connector-curvature="0" id="path13" d="m 19.636018,30.518546 a 1.88,1.88 0 0 0 -3.2,0.35 l -16.2299998,32.46 a 1.94,1.94 0 0 0 1.73,2.81 H 24.536018 a 1.87,1.87 0 0 0 1.74,-1.1 c 4.87,-10 1.92,-25.37 -6.64,-34.52 z" class="cls-1"/>
  <path style="fill:#2684ff" inkscape:connector-curvature="0" id="path15" d="m 31.546018,1.038546 a 42.81,42.81 0 0 0 -2.5,42.27 l 10.95,21.73 a 1.94,1.94 0 0 0 1.73,1.08 h 22.6 a 2,2 0 0 0 1.67,-2.79 l -31.15,-62.29 a 1.83,1.83 0 0 0 -3.3,0 z" class="cls-2"/>
</svg>
