<svg xmlns="http://www.w3.org/2000/svg" viewBox="0 0 350.81 354.96">
  <defs>
    <style>
      .cls-1 {
        fill: #0172b1;
      }

      .cls-2 {
        fill: #fff;
      }
    </style>
  </defs>
  <g id="Layer_2" data-name="Layer 2">
    <g id="Layer_1-2" data-name="Layer 1">
      <path class="cls-1"
        d="M315.44,355a35.43,35.43,0,0,0,35.37-35.49v-284A35.43,35.43,0,0,0,315.44,0H35.37A35.43,35.43,0,0,0,0,35.49v284A35.43,35.43,0,0,0,35.37,355Z" />
      <path class="cls-2"
        d="M101.55,78.86c-13,0-21.53,8.77-21.53,20.2,0,11.16,8.24,20.2,21,20.2,13.55,0,21.79-9,21.79-20.2C122.55,87.63,114.57,78.86,101.55,78.86Z" />
      <rect class="cls-2" x="81.08" y="135.21" width="40.4" height="129.98" />
      <path class="cls-2"
        d="M269,265.19V188.37c0-38.27-19.94-56.08-46.52-56.08-21.79,0-34.82,12.49-40.13,21h-.8l-1.86-18.08H144.6c.53,11.7,1.06,25.25,1.06,41.47v88.51h40.4v-75c0-3.72.27-7.44,1.33-10.1C190.32,172.69,197,165,208.13,165c14.62,0,20.47,11.43,20.47,28.18v72Z" />
    </g>
  </g>
</svg>