<svg xmlns="http://www.w3.org/2000/svg" viewBox="75 0 1840.77 121.96">
  <defs>
    <style>
      .cls-1 {
        fill: none;
        stroke: #000;
        stroke-miterlimit: 4.23;
        stroke-width: 25px;
      }
    </style>
  </defs>
  <g id="Layer_2" data-name="Layer 2">
    <g id="Layer_1-2" data-name="Layer 1">
      <path class="cls-1"
        d="M9.56,61C38.67,26.47,67.77.91,96.88,18.16s58.21,68.43,87.32,85.74,58.17-8.26,87.28-42.82l0,0C300.62,26.47,329.73.91,358.83,18.16s58.22,68.43,87.32,85.74S504.36,95.59,533.5,61,591.68.91,620.79,18.16,679,86.59,708.11,103.9s58.17-8.26,87.28-42.82l0,0c29.1-34.56,58.21-60.12,87.31-42.87S941,86.59,970.06,103.9s58.21-8.31,87.38-42.93S1115.71.78,1144.82,18s58.09,68.56,87.2,85.87,58.17-8.26,87.28-42.82l0,0c29.1-34.56,58.21-60.12,87.32-42.87s58.21,68.43,87.31,85.74,58.22-8.31,87.36-42.9,58.18-60.09,87.28-42.84,58.22,68.43,87.32,85.74,58.17-8.26,87.28-42.82l0,0c29.1-34.56,58.21-60.12,87.32-42.87s58.21,68.43,87.32,85.74S2076.1,95.59,2105.2,61" />
    </g>
  </g>
</svg>